<svg width="30" height="31" viewBox="0 0 30 31" fill="none" xmlns="http://www.w3.org/2000/svg">
<circle cx="15" cy="15.2456" r="15" fill="#73A56C"/>
<path d="M17.6667 10.8012C18.1382 10.8012 18.5903 10.9885 18.9237 11.3219C19.2571 11.6553 19.4444 12.1074 19.4444 12.5789M17.6667 7.24561C19.0812 7.24561 20.4377 7.80751 21.4379 8.8077C22.4381 9.8079 23 11.1645 23 12.5789M8.77778 8.13449H12.3333L14.1111 12.5789L11.8889 13.9123C12.8409 15.8425 14.4031 17.4048 16.3333 18.3567L17.6667 16.1345L22.1111 17.9123V21.4678C22.1111 21.9393 21.9238 22.3915 21.5904 22.7249C21.257 23.0583 20.8048 23.2456 20.3333 23.2456C16.866 23.0349 13.5957 21.5625 11.1394 19.1062C8.68311 16.6499 7.21071 13.3796 7 9.91227C7 9.44078 7.1873 8.98859 7.5207 8.65519C7.8541 8.3218 8.30628 8.13449 8.77778 8.13449Z" stroke="white" stroke-width="2" stroke-linecap="round" stroke-linejoin="round"/>
</svg>
